<?xml version="1.0" encoding="UTF-8" standalone="no"?>
<!DOCTYPE svg PUBLIC "-//W3C//DTD SVG 1.1//EN"
 "http://www.w3.org/Graphics/SVG/1.1/DTD/svg11.dtd">
<!-- Generated by graphviz version 2.47.0 (20210316.0004)
 -->
<!-- Title: dependencies Pages: 1 -->
<svg width="896pt" height="211pt"
 viewBox="0.00 0.00 896.00 211.00" xmlns="http://www.w3.org/2000/svg" xmlns:xlink="http://www.w3.org/1999/xlink">
<g id="graph0" class="graph" transform="scale(1 1) rotate(0) translate(4 207)">
<title>dependencies</title>
<polygon fill="white" stroke="transparent" points="-4,4 -4,-207 892,-207 892,4 -4,4"/>
<text text-anchor="start" x="423.01" y="-42.4" font-family="Times-12" font-weight="bold" font-size="14.00">Legend</text>
<polygon fill="#ffffb3" stroke="transparent" points="210,-10 210,-30 230,-30 230,-10 210,-10"/>
<text text-anchor="start" x="233.63" y="-15.4" font-family="Times-12" font-size="14.00"> &#160;Declarations</text>
<polygon fill="#8dd3c7" stroke="transparent" points="323,-10 323,-30 343,-30 343,-10 323,-10"/>
<text text-anchor="start" x="346.73" y="-15.4" font-family="Times-12" font-size="14.00"> &#160;Module</text>
<polygon fill="#80b1d3" stroke="transparent" points="409,-10 409,-30 429,-30 429,-10 409,-10"/>
<text text-anchor="start" x="432.78" y="-15.4" font-family="Times-12" font-size="14.00"> &#160;Bootstrap</text>
<polygon fill="#fdb462" stroke="transparent" points="506,-10 506,-30 526,-30 526,-10 506,-10"/>
<text text-anchor="start" x="529.67" y="-15.4" font-family="Times-12" font-size="14.00"> &#160;Providers</text>
<polygon fill="#fb8072" stroke="transparent" points="602,-10 602,-30 622,-30 622,-10 602,-10"/>
<text text-anchor="start" x="625.73" y="-15.4" font-family="Times-12" font-size="14.00"> &#160;Exports</text>
<g id="clust1" class="cluster">
<title>cluster_ArtworksModule</title>
<polygon fill="none" stroke="black" stroke-dasharray="1,5" points="8,-70 8,-195 880,-195 880,-70 8,-70"/>
</g>
<g id="clust2" class="cluster">
<title>cluster_ArtworksModule_declarations</title>
<polygon fill="none" stroke="black" points="198,-78 198,-130 872,-130 872,-78 198,-78"/>
</g>
<g id="clust7" class="cluster">
<title>cluster_ArtworksModule_imports</title>
<polygon fill="none" stroke="black" points="16,-78 16,-130 190,-130 190,-78 16,-78"/>
</g>
<!-- ArtworkItemComponent -->
<g id="node1" class="node">
<title>ArtworkItemComponent</title>
<polygon fill="#ffffb3" stroke="black" points="864.41,-122 709.59,-122 709.59,-86 864.41,-86 864.41,-122"/>
<text text-anchor="middle" x="787" y="-99.8" font-family="Times,serif" font-size="14.00">ArtworkItemComponent</text>
</g>
<!-- ArtworksModule -->
<g id="node5" class="node">
<title>ArtworksModule</title>
<polygon fill="#8dd3c7" stroke="black" points="513.42,-187 510.42,-191 489.42,-191 486.42,-187 400.58,-187 400.58,-151 513.42,-151 513.42,-187"/>
<text text-anchor="middle" x="457" y="-164.8" font-family="Times,serif" font-size="14.00">ArtworksModule</text>
</g>
<!-- ArtworkItemComponent&#45;&gt;ArtworksModule -->
<g id="edge1" class="edge">
<title>ArtworkItemComponent&#45;&gt;ArtworksModule</title>
<path fill="none" stroke="black" d="M787,-122.28C787,-143.32 787,-175 787,-175 787,-175 523.35,-175 523.35,-175"/>
<polygon fill="black" stroke="black" points="523.35,-171.5 513.35,-175 523.35,-178.5 523.35,-171.5"/>
</g>
<!-- ArtworkListComponent -->
<g id="node2" class="node">
<title>ArtworkListComponent</title>
<polygon fill="#ffffb3" stroke="black" points="692.04,-122 541.96,-122 541.96,-86 692.04,-86 692.04,-122"/>
<text text-anchor="middle" x="617" y="-99.8" font-family="Times,serif" font-size="14.00">ArtworkListComponent</text>
</g>
<!-- ArtworkListComponent&#45;&gt;ArtworksModule -->
<g id="edge2" class="edge">
<title>ArtworkListComponent&#45;&gt;ArtworksModule</title>
<path fill="none" stroke="black" d="M617,-122.02C617,-139.37 617,-163 617,-163 617,-163 523.41,-163 523.41,-163"/>
<polygon fill="black" stroke="black" points="523.41,-159.5 513.41,-163 523.41,-166.5 523.41,-159.5"/>
</g>
<!-- ArtworksComponent -->
<g id="node3" class="node">
<title>ArtworksComponent</title>
<polygon fill="#ffffb3" stroke="black" points="524.2,-122 389.8,-122 389.8,-86 524.2,-86 524.2,-122"/>
<text text-anchor="middle" x="457" y="-99.8" font-family="Times,serif" font-size="14.00">ArtworksComponent</text>
</g>
<!-- ArtworksComponent&#45;&gt;ArtworksModule -->
<g id="edge3" class="edge">
<title>ArtworksComponent&#45;&gt;ArtworksModule</title>
<path fill="none" stroke="black" d="M457,-122.11C457,-122.11 457,-140.99 457,-140.99"/>
<polygon fill="black" stroke="black" points="453.5,-140.99 457,-150.99 460.5,-140.99 453.5,-140.99"/>
</g>
<!-- FilterSortFormComponent -->
<g id="node4" class="node">
<title>FilterSortFormComponent</title>
<polygon fill="#ffffb3" stroke="black" points="371.83,-122 206.17,-122 206.17,-86 371.83,-86 371.83,-122"/>
<text text-anchor="middle" x="289" y="-99.8" font-family="Times,serif" font-size="14.00">FilterSortFormComponent</text>
</g>
<!-- FilterSortFormComponent&#45;&gt;ArtworksModule -->
<g id="edge4" class="edge">
<title>FilterSortFormComponent&#45;&gt;ArtworksModule</title>
<path fill="none" stroke="black" d="M289,-122.02C289,-139.37 289,-163 289,-163 289,-163 390.59,-163 390.59,-163"/>
<polygon fill="black" stroke="black" points="390.59,-166.5 400.59,-163 390.59,-159.5 390.59,-166.5"/>
</g>
<!-- ArtworksRoutingModule -->
<g id="node6" class="node">
<title>ArtworksRoutingModule</title>
<polygon fill="#8dd3c7" stroke="black" points="181.54,-122 178.54,-126 157.54,-126 154.54,-122 24.46,-122 24.46,-86 181.54,-86 181.54,-122"/>
<text text-anchor="middle" x="103" y="-99.8" font-family="Times,serif" font-size="14.00">ArtworksRoutingModule</text>
</g>
<!-- ArtworksRoutingModule&#45;&gt;ArtworksModule -->
<g id="edge5" class="edge">
<title>ArtworksRoutingModule&#45;&gt;ArtworksModule</title>
<path fill="none" stroke="black" d="M103,-122.28C103,-143.32 103,-175 103,-175 103,-175 390.52,-175 390.52,-175"/>
<polygon fill="black" stroke="black" points="390.52,-178.5 400.52,-175 390.52,-171.5 390.52,-178.5"/>
</g>
</g>
</svg>
